# xmcd
#
# Track frame offsets:
#	150
#	15422
#	30081
#	44786
#	57124
#	71664
#	86616
#	98370
#	111987
#	126541
#	139977
#	160516
#	172584
#	184826
#	198492
#	213756
#	226039
#	240915
#
# Disc length: 3391 seconds
#
# Revision: 0
# Processed by: cddbd v1.4PL0 Copyright (c) Steve Scherf et al.
# Submitted via: audiograbber 1.80
#
DISCID=de0d3d12
DTITLE=Louis Armstrong - High Society CD2
DYEAR=1900
DGENRE=
TTITLE0=What A Wonderful World
TTITLE1=Someday You'll Be Sorry
TTITLE2=That's My Home
TTITLE3=St. Louis Blues
TTITLE4=I Can't Give You Anything But Love
TTITLE5=There's A Cabin In The Pines
TTITLE6=Blues For Yesterday
TTITLE7=Linger In My Arms A Little Longer
TTITLE8=Hustlin' And Bustlin' For Baby
TTITLE9=Whatta Ya Gonna Do?
TTITLE10=Long, Long Journey
TTITLE11=Hooney, Do!
TTITLE12=Swing You Cats
TTITLE13=Do You Know What It Means To Leave New Orleans?
TTITLE14=Mood Indigo
TTITLE15=This Black Cat Has 9 Lives
TTITLE16=I've Got The World Onn A String
TTITLE17=Jack-Armstrong Blues
EXTD=
EXTT0=
EXTT1=
EXTT2=
EXTT3=
EXTT4=
EXTT5=
EXTT6=
EXTT7=
EXTT8=
EXTT9=
EXTT10=
EXTT11=
EXTT12=
EXTT13=
EXTT14=
EXTT15=
EXTT16=
EXTT17=
PLAYORDER=
